<svg width="37" height="64" viewBox="0 0 37 64" fill="none" xmlns="http://www.w3.org/2000/svg">
<path d="M33.799 64H2.858C1.282 64 0 62.718 0 61.142V2.859C0 1.282 1.283 0 2.858 0H33.799C35.375 0 36.657 1.282 36.657 2.858V61.141C36.658 62.718 35.375 64 33.799 64ZM2.858 2C2.385 2 2 2.385 2 2.858V61.141C2 61.615 2.385 61.999 2.858 61.999H33.799C34.273 61.999 34.657 61.614 34.657 61.141V2.859C34.658 2.385 34.273 2 33.799 2H2.858Z" fill="#6D6D6D"/>
<path d="M22.042 59.8981H14.617C14.276 59.8981 13.998 59.6191 13.998 59.2791V59.2781C13.998 58.9371 14.277 58.6591 14.617 58.6591H22.042C22.383 58.6591 22.661 58.9381 22.661 59.2781V59.2791C22.661 59.6191 22.382 59.8981 22.042 59.8981Z" fill="#6D6D6D"/>
<path d="M22.041 60.3991H14.6159C13.9989 60.3991 13.4969 59.8961 13.4969 59.2791C13.4969 58.6621 13.9989 58.1591 14.6159 58.1591H22.041C22.658 58.1591 23.1609 58.6611 23.1609 59.2781C23.1619 59.8961 22.659 60.3991 22.041 60.3991ZM14.6159 59.1581C14.5519 59.1581 14.4969 59.2131 14.4969 59.2771C14.4969 59.3421 14.5519 59.3981 14.6159 59.3981H22.041C22.106 59.3981 22.1609 59.3431 22.1609 59.2781C22.1609 59.2131 22.106 59.1581 22.041 59.1581H14.6159V59.1581Z" fill="#6D6D6D"/>
<path d="M17.4509 4.57301H11.9599C11.6189 4.57301 11.3409 4.29401 11.3409 3.95401V3.95201C11.3409 3.61101 11.6199 3.33301 11.9599 3.33301H17.4509C17.7919 3.33301 18.0699 3.61201 18.0699 3.95201V3.95301C18.0709 4.29401 17.7919 4.57301 17.4509 4.57301Z" fill="#6D6D6D"/>
<path d="M17.452 5.07301H11.96C11.343 5.07301 10.84 4.57001 10.84 3.95301C10.84 3.33601 11.342 2.83301 11.96 2.83301H17.452C18.069 2.83301 18.571 3.33501 18.571 3.95201C18.571 4.57001 18.069 5.07301 17.452 5.07301ZM11.96 3.83301C11.895 3.83301 11.84 3.88801 11.84 3.95201C11.84 4.01701 11.895 4.07301 11.96 4.07301H17.452C17.516 4.07301 17.571 4.01801 17.571 3.95301C17.571 3.88801 17.516 3.83301 17.452 3.83301H11.96Z" fill="#6D6D6D"/>
<path d="M21.568 4.57398C21.9104 4.57398 22.188 4.2964 22.188 3.95398C22.188 3.61157 21.9104 3.33398 21.568 3.33398C21.2256 3.33398 20.948 3.61157 20.948 3.95398C20.948 4.2964 21.2256 4.57398 21.568 4.57398Z" fill="#6D6D6D"/>
<path d="M21.568 5.07501C20.951 5.07501 20.448 4.57201 20.448 3.95401C20.448 3.33601 20.951 2.83301 21.568 2.83301C22.185 2.83301 22.687 3.33601 22.687 3.95401C22.687 4.57201 22.185 5.07501 21.568 5.07501ZM21.568 3.83301C21.502 3.83301 21.448 3.88801 21.448 3.95401C21.448 4.08601 21.687 4.08801 21.687 3.95401C21.687 3.88801 21.633 3.83301 21.568 3.83301Z" fill="#6D6D6D"/>
<path d="M24.698 4.57398C25.0404 4.57398 25.318 4.2964 25.318 3.95398C25.318 3.61157 25.0404 3.33398 24.698 3.33398C24.3556 3.33398 24.078 3.61157 24.078 3.95398C24.078 4.2964 24.3556 4.57398 24.698 4.57398Z" fill="#6D6D6D"/>
<path d="M24.698 5.07501C24.081 5.07501 23.578 4.57201 23.578 3.95401C23.578 3.33601 24.081 2.83301 24.698 2.83301C25.315 2.83301 25.818 3.33601 25.818 3.95401C25.818 4.57201 25.315 5.07501 24.698 5.07501ZM24.698 3.83301C24.632 3.83301 24.578 3.88801 24.578 3.95401C24.578 4.08701 24.818 4.08701 24.818 3.95401C24.818 3.88801 24.764 3.83301 24.698 3.83301Z" fill="#6D6D6D"/>
<path d="M35.594 5.92896H1.45703V7.92896H35.594V5.92896Z" fill="#6D6D6D"/>
<path d="M35.594 54.5601H1.45703V56.5601H35.594V54.5601Z" fill="#6D6D6D"/>
<path d="M4.00696 9.92896V52.553H32.658V9.92896H4.00696ZM14.363 28.945L7.92496 32.172V32.204L14.363 35.431V36.567L6.72396 32.632V31.743L14.363 27.808V28.945ZM16.886 37.227H15.782L20.376 25.29H21.496L16.886 37.227ZM29.82 32.649L22.181 36.567V35.431L28.668 32.204V32.172L22.181 28.945V27.809L29.82 31.727V32.649Z" fill="#27AFE8"/>
</svg>
